<svg width="29" height="29" viewBox="0 0 29 29" fill="none" xmlns="http://www.w3.org/2000/svg">
<rect x="1.0293" y="1.0625" width="27" height="27" rx="13.5" fill="white"/>
<rect x="1.0293" y="1.0625" width="27" height="27" rx="13.5" stroke="#909294"/>
<g clip-path="url(#clip0_449_59)">
<path fill-rule="evenodd" clip-rule="evenodd" d="M20.3782 10.1108C20.4261 10.0629 20.4641 10.006 20.49 9.94347C20.5159 9.88091 20.5293 9.81385 20.5293 9.74614C20.5293 9.67842 20.5159 9.61136 20.49 9.5488C20.4641 9.48623 20.4261 9.42939 20.3782 9.3815C20.3304 9.33362 20.2735 9.29564 20.211 9.26972C20.1484 9.24381 20.0813 9.23047 20.0136 9.23047C19.9459 9.23047 19.8788 9.24381 19.8163 9.26972C19.7537 9.29564 19.6969 9.33362 19.649 9.3815L14.8635 14.1681L10.0779 9.3815C10.03 9.33362 9.9732 9.29564 9.91064 9.26972C9.84807 9.24381 9.78102 9.23047 9.7133 9.23047C9.64558 9.23047 9.57852 9.24381 9.51596 9.26972C9.4534 9.29564 9.39655 9.33362 9.34867 9.3815C9.30078 9.42939 9.2628 9.48623 9.23688 9.5488C9.21097 9.61136 9.19763 9.67842 9.19763 9.74614C9.19763 9.81385 9.21097 9.88091 9.23688 9.94347C9.2628 10.006 9.30078 10.0629 9.34867 10.1108L14.1352 14.8963L9.34867 19.6818C9.25196 19.7785 9.19763 19.9097 9.19763 20.0465C9.19763 20.1832 9.25196 20.3144 9.34867 20.4111C9.44537 20.5078 9.57654 20.5621 9.7133 20.5621C9.85006 20.5621 9.98122 20.5078 10.0779 20.4111L14.8635 15.6245L19.649 20.4111C19.7457 20.5078 19.8769 20.5621 20.0136 20.5621C20.1504 20.5621 20.2815 20.5078 20.3782 20.4111C20.475 20.3144 20.5293 20.1832 20.5293 20.0465C20.5293 19.9097 20.475 19.7785 20.3782 19.6818L15.5917 14.8963L20.3782 10.1108Z" fill="#909294"/>
</g>
<defs>
<clipPath id="clip0_449_59">
<rect width="12" height="12" fill="white" transform="translate(8.5293 8.5625)"/>
</clipPath>
</defs>
</svg>
